#!OML:ASF H:\BabyWalks\Project 1\Capture day 1\Session 1\baby.ASF
:FULLY-SPECIFIED
:DEGREES
645
root 6.81397 9.97877 -1.78772 -344.928 94.9225 -388.574
lowerback 44.0831 -3.40471 4.31003
upperback 4.80903 -0.660526 3.42211
thorax -15.469 -0.124774 1.80985
lowerneck -3.00837 -0.0733888 2.56705
upperneck -24.1188 -0.0104562 -3.87702
head -6.85353 0.494887 -1.75151
rclavicle -1.02175e-013 -1.95803e-014
rhumerus 39.928 30.0204 -36.7637
rradius 33.909
rwrist 42.4107
rhand -66.8769 -16.6695
rfingers 7.12502
rthumb -38.6707 -42.283
lclavicle -1.02175e-013 -1.95803e-014
lhumerus 38.136 -19.7014 50.8655
lradius 50.596
lwrist -17.4103
lhand -44.2631 -9.19144
lfingers 7.12502
lthumb -17.0745 20.0782
rfemur -56.0556 -26.7467 16.7543
rtibia 127.345
rfoot -2.26684 33.6854
rtoes -8.34693
lfemur -34.3138 -5.15661 -10.9428
ltibia 96.2073
lfoot 5.05793 -21.7856
ltoes -7.86458
646
root 6.86845 9.96617 -1.76349 -346.349 95.1379 -389.957
lowerback 44.0808 -3.53229 4.21367
upperback 4.75471 -0.847312 3.48481
thorax -15.5328 -0.196785 2.02235
lowerneck -3.00185 -0.0446349 2.36664
upperneck -24.0573 0.042521 -3.76494
head -6.83327 0.526865 -1.68194
rclavicle 3.18055e-015 1.00386e-014
rhumerus 39.8366 30.5504 -36.9186
rradius 34.0092
rwrist 42.4695
rhand -66.9697 -16.5048
rfingers 7.12502
rthumb -38.7583 -42.0936
lclavicle 3.18055e-015 1.00386e-014
lhumerus 39.1492 -18.7589 50.8033
lradius 49.1451
lwrist -17.5081
lhand -44.0469 -8.87475
lfingers 7.12502
lthumb -16.8663 20.4128
rfemur -56.5214 -26.3721 16.7884
rtibia 127.722
rfoot -1.92839 33.573
rtoes -8.81903
lfemur -33.9157 -5.17762 -11.0673
ltibia 95.9198
lfoot 5.23837 -21.753
ltoes -7.48132
647
root 6.92538 9.95347 -1.7392 -347.585 95.3334 -391.154
lowerback 44.0872 -3.65217 4.11361
upperback 4.70046 -1.02732 3.54179
thorax -15.5982 -0.265733 2.22766
lowerneck -2.99765 -0.0181146 2.16639
upperneck -23.999 0.0886813 -3.67136
head -6.81393 0.557138 -1.61823
rclavicle 5.725e-014 5.46658e-016
rhumerus 39.7485 31.112 -37.0531
rradius 34.1123
rwrist 42.502
rhand -67.0613 -16.3643
rfingers 7.12502
rthumb -38.8446 -41.9286
lclavicle 5.725e-014 5.46658e-016
lhumerus 40.096 -17.8386 50.8397
lradius 47.5706
lwrist -17.7987
lhand -43.7902 -8.56383
lfingers 7.12502
lthumb -16.6193 20.7446
rfemur -56.8878 -25.8978 16.8136
rtibia 128.001
rfoot -1.55542 33.437
rtoes -9.25043
lfemur -33.4894 -5.1619 -11.1912
ltibia 95.6513
lfoot 5.43971 -21.7171
ltoes -7.05615
648
root 6.98302 9.93969 -1.71413 -348.606 95.5196 -392.207
lowerback 44.0089 -3.75942 4.01239
upperback 4.64086 -1.20222 3.59744
thorax -15.6432 -0.333515 2.42812
lowerneck -2.98798 0.00601302 1.97619
upperneck -23.95 0.12655 -3.60461
head -6.79885 0.5849 -1.56485
rclavicle -3.29983e-014 -4.19436e-014
rhumerus 39.6523 31.6961 -37.1869
rradius 34.2131
rwrist 42.5262
rhand -67.1515 -16.2259
rfingers 7.12502
rthumb -38.9297 -41.766
lclavicle -3.29983e-014 -4.19436e-014
lhumerus 40.9678 -16.9543 50.9695
lradius 45.8948
lwrist -18.2848
lhand -43.5061 -8.26876
lfingers 7.12502
lthumb -16.3457 21.0624
rfemur -57.2722 -25.3321 16.8779
rtibia 128.199
rfoot -1.11777 33.2614
rtoes -9.60321
lfemur -33.1415 -5.10454 -11.2945
ltibia 95.4159
lfoot 5.66007 -21.6951
ltoes -6.61255
649
root 7.04291 9.92522 -1.68891 -349.432 95.6947 -393.098
lowerback 43.8898 -3.86174 3.92251
upperback 4.58067 -1.37171 3.64657
thorax -15.6753 -0.400222 2.61192
lowerneck -2.98044 0.0284666 1.80643
upperneck -23.9097 0.156506 -3.57092
head -6.78641 0.61 -1.52555
rclavicle 2.14687e-014 8.7664e-014
rhumerus 39.5444 32.293 -37.3312
rradius 34.307
rwrist 42.5474
rhand -67.2422 -16.0743
rfingers 7.12502
rthumb -39.0152 -41.5899
lclavicle 2.14687e-014 8.7664e-014
lhumerus 41.7603 -16.1141 51.1893
lradius 44.1446
lwrist -18.9658
lhand -43.1895 -7.97927
lfingers 7.12502
lthumb -16.0409 21.3767
rfemur -57.5939 -24.6782 16.9536
rtibia 128.302
rfoot -0.660678 33.0498
rtoes -9.8981
lfemur -32.8132 -5.01949 -11.3812
ltibia 95.1959
lfoot 5.90647 -21.6856
ltoes -6.15102
650
root 7.10572 9.91009 -1.66353 -350.091 95.8611 -393.848
lowerback 43.7375 -3.9617 3.8469
upperback 4.52031 -1.53703 3.68698
thorax -15.6965 -0.466544 2.7757
lowerneck -2.97508 0.0506609 1.66506
upperneck -23.8763 0.180299 -3.57323
head -6.77587 0.632776 -1.50268
rclavicle -3.47873e-014 3.0911e-014
rhumerus 39.4195 32.902 -37.4883
rradius 34.3965
rwrist 42.5633
rhand -67.3345 -15.8823
rfingers 7.12502
rthumb -39.1023 -41.373
lclavicle -3.47873e-014 3.0911e-014
lhumerus 42.4604 -15.3307 51.5007
lradius 42.3468
lwrist -19.8347
lhand -42.8478 -7.69309
lfingers 7.12502
lthumb -15.7118 21.6891
rfemur -57.8257 -23.9501 17.033
rtibia 128.315
rfoot -0.242561 32.8157
rtoes -10.1945
lfemur -32.4915 -4.91156 -11.4523
ltibia 94.9844
lfoot 6.17036 -21.6929
ltoes -5.66075
651
root 7.17208 9.89433 -1.63792 -350.581 96.0178 -394.438
lowerback 43.5657 -4.06013 3.78776
upperback 4.46503 -1.6966 3.71806
thorax -15.7047 -0.531699 2.91679
lowerneck -2.98355 0.0727701 1.55028
upperneck -23.8463 0.200108 -3.60311
head -6.76404 0.653797 -1.49318
rclavicle 1.35174e-014 -2.61402e-014
rhumerus 39.2656 33.5043 -37.6863
rradius 34.4758
rwrist 42.6099
rhand -67.4375 -15.7409
rfingers 7.12502
rthumb -39.1993 -41.2036
lclavicle 1.35174e-014 -2.61402e-014
lhumerus 43.0873 -14.6187 51.8536
lradius 40.5234
lwrist -20.8264
lhand -42.4813 -7.39611
lfingers 7.12502
lthumb -15.3588 22.0135
rfemur -57.9336 -23.1484 17.1126
rtibia 128.233
rfoot 0.124377 32.5514
rtoes -10.4506
lfemur -32.1546 -4.78381 -11.5043
ltibia 94.7721
lfoot 6.4614 -21.7147
ltoes -5.1481
652
root 7.24241 9.87793 -1.6118 -350.945 96.1657 -394.914
lowerback 43.3708 -4.15628 3.7407
upperback 4.41546 -1.85219 3.73835
thorax -15.6982 -0.596329 3.03645
lowerneck -3.00119 0.092901 1.46063
upperneck -23.822 0.214866 -3.65183
head -6.7526 0.671989 -1.49394
rclavicle 1.83876e-014 -5.06652e-014
rhumerus 39.0765 34.0967 -37.9324
rradius 34.5489
rwrist 42.6854
rhand -67.552 -15.5868
rfingers 7.12502
rthumb -39.3072 -41.0181
lclavicle 1.83876e-014 -5.06652e-014
lhumerus 43.6358 -13.9914 52.222
lradius 38.7002
lwrist -21.899
lhand -42.0719 -7.08595
lfingers 7.12502
lthumb -14.9644 22.3534
rfemur -57.9118 -22.2834 17.1909
rtibia 128.057
rfoot 0.459443 32.2478
rtoes -10.6011
lfemur -31.8022 -4.63781 -11.5392
ltibia 94.5518
lfoot 6.77835 -21.7466
ltoes -4.61369
653
root 7.31605 9.86069 -1.58466 -351.205 96.2962 -395.299
lowerback 43.1587 -4.24128 3.69424
upperback 4.36978 -1.99784 3.74848
thorax -15.6811 -0.657435 3.13857
lowerneck -3.03509 0.10956 1.38998
upperneck -23.8005 0.225095 -3.70594
head -6.73936 0.687025 -1.49948
rclavicle 4.05521e-014 -3.10601e-014
rhumerus 38.8493 34.6809 -38.2203
rradius 34.6203
rwrist 42.783
rhand -67.6787 -15.4418
rfingers 7.12502
rthumb -39.4266 -40.8383
lclavicle 4.05521e-014 -3.10601e-014
lhumerus 44.0868 -13.4562 52.6305
lradius 36.8939
lwrist -23.064
lhand -41.6215 -6.78931
lfingers 7.12502
lthumb -14.5305 22.6818
rfemur -57.7728 -21.3877 17.2839
rtibia 127.801
rfoot 0.751718 31.8611
rtoes -10.6559
lfemur -31.4396 -4.46241 -11.5559
ltibia 94.3266
lfoot 7.10989 -21.7908
ltoes -4.05266
654
root 7.39341 9.84354 -1.55606 -351.349 96.3951 -395.548
lowerback 42.9835 -4.30817 3.63589
upperback 4.32783 -2.12502 3.75083
thorax -15.671 -0.71012 3.22986
lowerneck -3.08291 0.121098 1.33493
upperneck -23.7824 0.229147 -3.76074
head -6.72501 0.697986 -1.50763
rclavicle 3.56818e-014 1.11195e-013
rhumerus 38.5739 35.2523 -38.571
rradius 34.6888
rwrist 42.9186
rhand -67.8099 -15.3236
rfingers 7.12502
rthumb -39.5502 -40.6838
lclavicle 3.56818e-014 1.11195e-013
lhumerus 44.4493 -13.0251 53.0328
lradius 35.1097
lwrist -24.2741
lhand -41.132 -6.50692
lfingers 7.12502
lthumb -14.0588 22.9976
rfemur -57.4852 -20.4821 17.3952
rtibia 127.473
rfoot 1.01377 31.3637
rtoes -10.5795
lfemur -31.024 -4.24782 -11.5495
ltibia 94.0946
lfoot 7.45622 -21.8443
ltoes -3.47114
655
root 7.47292 9.82649 -1.52486 -351.36 96.451 -395.701
lowerback 42.7873 -4.33945 3.54622
upperback 4.28348 -2.22652 3.75062
thorax -15.6569 -0.751253 3.32136
lowerneck -3.14779 0.12474 1.28765
upperneck -23.7645 0.224235 -3.80898
head -6.70815 0.703513 -1.51449
rclavicle 1.60022e-014 -2.11954e-014
rhumerus 38.2589 35.82 -38.961
rradius 34.7628
rwrist 43.0683
rhand -67.9426 -15.2063
rfingers 7.12502
rthumb -39.6751 -40.5295
lclavicle 1.60022e-014 -2.11954e-014
lhumerus 44.7172 -12.7101 53.4101
lradius 33.3543
lwrist -25.5221
lhand -40.7526 -6.19713
lfingers 7.12502
lthumb -13.6932 23.3324
rfemur -57.1718 -19.572 17.5554
rtibia 127.104
rfoot 1.29637 30.738
rtoes -10.3195
lfemur -30.6356 -3.96897 -11.5125
ltibia 93.8701
lfoot 7.79668 -21.9153
ltoes -2.88609
656
root 7.55337 9.80995 -1.4907 -350.9 96.4547 -395.453
lowerback 42.5413 -4.32992 3.44453
upperback 4.23132 -2.28754 3.75994
thorax -15.6364 -0.776018 3.40886
lowerneck -3.22966 0.11927 1.24273
upperneck -23.7473 0.208764 -3.84905
head -6.68894 0.703175 -1.51856
rclavicle -5.889e-015 9.17515e-015
rhumerus 37.906 36.3834 -39.3851
rradius 34.8461
rwrist 43.2224
rhand -68.0679 -15.0083
rfingers 7.12502
rthumb -39.7931 -40.2964
lclavicle -5.889e-015 9.17515e-015
lhumerus 44.8802 -12.5075 53.7619
lradius 31.6401
lwrist -26.8257
lhand -40.7593 -5.8443
lfingers 7.12502
lthumb -13.6997 23.6848
rfemur -56.9086 -18.6521 17.8246
rtibia 126.707
rfoot 1.60828 29.9838
rtoes -9.87791
lfemur -30.3348 -3.59312 -11.3975
ltibia 93.6729
lfoot 8.11473 -22.0284
ltoes -2.33496
